<?xml version="1.0" encoding="UTF-8" standalone="no"?>
<!-- Created with Inkscape (http://www.inkscape.org/) -->

<svg
   xmlns:dc="http://purl.org/dc/elements/1.1/"
   xmlns:cc="http://creativecommons.org/ns#"
   xmlns:rdf="http://www.w3.org/1999/02/22-rdf-syntax-ns#"
   xmlns:svg="http://www.w3.org/2000/svg"
   xmlns="http://www.w3.org/2000/svg"
   xmlns:sodipodi="http://sodipodi.sourceforge.net/DTD/sodipodi-0.dtd"
   xmlns:inkscape="http://www.inkscape.org/namespaces/inkscape"
   width="1920"
   height="1080"
   viewBox="0 0 508 285.75001"
   version="1.1"
   id="svg8"
   sodipodi:docname="batmass-logo.svg"
   inkscape:version="0.92.4 (5da689c313, 2019-01-14)"
   inkscape:export-filename="C:\Users\chhh\code\batmass-old\batmass\ResourcesCore\resources\batmass-logo-from-svg.png"
   inkscape:export-xdpi="96"
   inkscape:export-ydpi="96">
  <defs
     id="defs2" />
  <sodipodi:namedview
     id="base"
     pagecolor="#ffffff"
     bordercolor="#666666"
     borderopacity="1.0"
     inkscape:pageopacity="0.0"
     inkscape:pageshadow="2"
     inkscape:zoom="0.45254834"
     inkscape:cx="849.47462"
     inkscape:cy="668.74258"
     inkscape:document-units="mm"
     inkscape:current-layer="g3766"
     showgrid="false"
     fit-margin-top="0"
     fit-margin-left="0"
     fit-margin-right="0"
     fit-margin-bottom="0"
     inkscape:window-width="1858"
     inkscape:window-height="1177"
     inkscape:window-x="-8"
     inkscape:window-y="-8"
     inkscape:window-maximized="1"
     inkscape:pagecheckerboard="true"
     units="px"
     scale-x="1" />
  <metadata
     id="metadata5">
    <rdf:RDF>
      <cc:Work
         rdf:about="">
        <dc:format>image/svg+xml</dc:format>
        <dc:type
           rdf:resource="http://purl.org/dc/dcmitype/StillImage" />
        <dc:title></dc:title>
      </cc:Work>
    </rdf:RDF>
  </metadata>
  <g
     inkscape:label="Layer 1"
     inkscape:groupmode="layer"
     id="layer1"
     transform="translate(13978.377,-6589.3466)">
    <g
       id="g3766"
       style="display:inline">
      <path
         sodipodi:type="inkscape:offset"
         inkscape:radius="1.0101484"
         inkscape:original="M -13768.324 6618.7441 C -13769.148 6618.7561 -13769.888 6619.385 -13770.115 6620.1641 C -13774.829 6629.7476 -13779.338 6639.4344 -13783.572 6649.2402 C -13786.998 6656.9743 -13790.466 6664.7052 -13794.553 6672.1172 C -13795.999 6674.6345 -13797.633 6677.0559 -13799.561 6679.2324 C -13801.201 6677.8382 -13802.546 6676.1464 -13803.918 6674.498 C -13806.96 6670.649 -13809.582 6666.4807 -13811.881 6662.1504 C -13813.693 6658.6375 -13815.158 6654.9193 -13815.936 6651.0352 C -13816.334 6649.1515 -13816.669 6647.2541 -13817.115 6645.3809 C -13819.742 6648.3607 -13822.208 6651.5032 -13825.16 6654.1758 C -13830.94 6659.7239 -13836.931 6665.0596 -13843.217 6670.0293 C -13845.565 6671.8907 -13847.957 6673.693 -13850.371 6675.4668 C -13858.928 6681.7769 -13867.749 6687.7143 -13876.535 6693.6973 C -13887.413 6701.0569 -13898.379 6708.3036 -13908.877 6716.2012 C -13919.729 6724.3943 -13930.049 6733.3832 -13938.965 6743.6777 C -13947.37 6753.3584 -13954.553 6764.1183 -13960.098 6775.6836 C -13964.5 6784.8154 -13967.928 6794.3993 -13970.561 6804.1836 C -13970.651 6804.5555 -13970.746 6804.9307 -13970.775 6805.3125 C -13970.705 6806.0242 -13969.951 6806.5491 -13969.26 6806.418 C -13968.91 6806.356 -13968.632 6806.1156 -13968.387 6805.873 C -13966.253 6803.9819 -13964.14 6802.0665 -13961.967 6800.2207 C -13958.685 6797.4227 -13955.278 6794.76 -13951.637 6792.4434 C -13946.254 6788.9852 -13940.39 6786.1924 -13934.164 6784.6543 C -13925.798 6782.5719 -13916.923 6782.4928 -13908.545 6784.5527 C -13901.871 6786.2168 -13895.573 6789.2336 -13889.912 6793.1172 C -13883.279 6797.6912 -13877.628 6803.5934 -13872.961 6810.1387 C -13869.098 6815.5629 -13865.93 6821.5075 -13863.781 6827.8164 C -13863.19 6829.5228 -13862.699 6831.2615 -13862.197 6832.9961 C -13862.015 6833.5982 -13861.855 6834.239 -13861.447 6834.7363 C -13861.123 6835.109 -13860.625 6835.2983 -13860.139 6835.3281 C -13859.643 6835.3591 -13859.139 6835.2076 -13858.742 6834.9082 C -13857.336 6834.0471 -13856.217 6832.8177 -13854.996 6831.7305 C -13845.078 6822.6067 -13832.863 6815.9717 -13819.779 6812.7305 C -13814.589 6811.4553 -13809.258 6810.8129 -13803.92 6810.6621 C -13799.392 6810.5247 -13794.852 6810.6919 -13790.354 6811.2227 C -13783.607 6812.0584 -13776.998 6813.8981 -13770.727 6816.5117 C -13764.122 6819.265 -13757.895 6822.9304 -13752.289 6827.3789 C -13746.736 6831.7751 -13741.821 6836.9518 -13737.576 6842.6152 C -13736.217 6844.4226 -13734.933 6846.2846 -13733.695 6848.1777 C -13732.913 6849.338 -13732.095 6850.5079 -13730.996 6851.3945 C -13730.559 6851.7167 -13729.969 6851.7891 -13729.455 6851.6309 C -13728.939 6851.482 -13728.492 6851.1197 -13728.229 6850.6523 C -13725.322 6846.9701 -13722.333 6843.3386 -13718.973 6840.0566 C -13714.394 6835.4085 -13709.431 6831.1076 -13703.965 6827.5293 C -13694.379 6821.1755 -13683.441 6816.781 -13672.043 6815.1211 C -13659.078 6813.2187 -13645.662 6814.7016 -13633.365 6819.1953 C -13626.215 6821.7955 -13619.38 6825.2938 -13613.156 6829.6777 C -13609.943 6831.9607 -13606.941 6834.5392 -13604.186 6837.3574 C -13603.271 6838.2666 -13602.383 6839.209 -13601.408 6840.0547 C -13600.927 6840.3795 -13600.243 6840.3575 -13599.787 6839.9961 C -13599.423 6839.7346 -13599.205 6839.3206 -13599.09 6838.8965 C -13597.805 6835.9185 -13595.989 6833.2175 -13594.275 6830.4766 C -13590.6 6824.7134 -13586.053 6819.5202 -13580.902 6815.0332 C -13574.225 6809.1944 -13566.508 6804.5355 -13558.188 6801.4512 C -13546.575 6797.1145 -13533.836 6795.707 -13521.586 6797.7051 C -13510.876 6799.4342 -13500.58 6803.6284 -13491.678 6809.8281 C -13488.498 6812.0292 -13485.503 6814.4863 -13482.58 6817.0156 C -13482.143 6817.365 -13481.679 6817.7367 -13481.115 6817.8359 C -13480.182 6817.9375 -13479.253 6817.1506 -13479.215 6816.2109 C -13479.195 6815.5995 -13479.523 6815.0556 -13479.793 6814.5332 C -13480.894 6812.312 -13482.009 6810.0979 -13483.178 6807.9121 C -13487.059 6800.6264 -13491.402 6793.58 -13496.258 6786.9023 C -13507.458 6771.4342 -13521.217 6757.7869 -13536.973 6746.9746 C -13547.301 6739.8657 -13558.264 6733.6816 -13569.682 6728.502 C -13580.458 6723.5807 -13591.505 6719.2891 -13602.586 6715.1152 C -13620.195 6708.4963 -13638.002 6702.4074 -13655.484 6695.4551 C -13665.907 6691.2903 -13676.203 6686.7844 -13686.182 6681.6406 C -13692.244 6678.499 -13698.167 6675.0978 -13704.006 6671.5625 C -13706.665 6669.9458 -13709.31 6668.3085 -13711.906 6666.5918 C -13714.553 6664.8342 -13717.139 6662.9848 -13719.691 6661.0898 C -13721.034 6660.1422 -13722.409 6659.2347 -13723.855 6658.4492 C -13724.456 6658.2642 -13725.121 6658.8256 -13725.08 6659.4434 C -13724.99 6659.8528 -13724.859 6660.2523 -13724.736 6660.6523 C -13723.78 6663.6448 -13722.592 6666.5798 -13722.004 6669.6758 C -13720.85 6675.832 -13721.808 6682.4025 -13724.873 6687.8848 C -13726.631 6691.0317 -13729.057 6693.7845 -13731.852 6696.0508 C -13733.501 6697.4137 -13735.278 6698.6367 -13737.219 6699.5469 C -13738.45 6700.1272 -13739.732 6700.5839 -13741.023 6701.0059 C -13744.23 6702.0266 -13747.611 6702.5816 -13750.982 6702.4043 C -13751.301 6702.3863 -13751.619 6702.3611 -13751.938 6702.3281 C -13750.258 6698.9661 -13748.29 6695.761 -13746.461 6692.4805 C -13744.631 6689.2775 -13742.809 6686.0493 -13741.451 6682.6113 C -13741.099 6681.6193 -13740.957 6680.5712 -13740.768 6679.541 C -13740.435 6678.7211 -13739.76 6678.12 -13739.252 6677.4141 C -13737.591 6675.1951 -13736.581 6672.5393 -13736.084 6669.8262 C -13735.662 6667.5305 -13735.64 6665.1783 -13735.832 6662.8574 C -13735.912 6661.7886 -13736.051 6660.6954 -13735.783 6659.6426 C -13735.435 6658.2964 -13734.796 6657.0458 -13734.33 6655.7363 C -13733.354 6653.1634 -13732.644 6650.4907 -13732.211 6647.7734 C -13731.703 6644.7234 -13731.458 6641.6318 -13731.422 6638.541 C -13731.482 6637.8469 -13731.991 6637.1853 -13732.686 6637.0371 C -13733.485 6636.833 -13734.412 6637.2467 -13734.748 6638.0098 C -13736.464 6641.0851 -13738.136 6644.1892 -13740.08 6647.1289 C -13741.986 6645.2603 -13743.814 6643.2825 -13746.021 6641.7578 C -13749.486 6639.3101 -13753.634 6637.9099 -13757.844 6637.5176 C -13760.622 6637.2108 -13763.421 6637.2207 -13766.213 6637.1914 C -13766.347 6631.5247 -13766.459 6625.857 -13766.637 6620.1914 C -13766.741 6619.3836 -13767.512 6618.7341 -13768.322 6618.7441 L -13768.324 6618.7441 z M -13772.463 6639.457 C -13772.423 6639.8138 -13772.382 6640.1705 -13772.348 6640.5273 L -13772.344 6640.5273 C -13771.762 6646.0275 -13771.182 6651.5293 -13770.816 6657.0488 C -13770.776 6657.6735 -13770.736 6658.3044 -13770.6 6658.916 C -13770.468 6659.3082 -13770.25 6659.6712 -13769.967 6659.9727 C -13772.572 6660.3679 -13775.051 6661.2962 -13777.568 6662.0371 C -13777.712 6665.4534 -13777.57 6668.8805 -13777.848 6672.291 C -13778.402 6671.9355 -13779.087 6671.7003 -13779.746 6671.8574 C -13780.552 6672.0567 -13781.177 6672.829 -13781.197 6673.6602 C -13781.356 6674.8945 -13781.411 6676.1387 -13781.498 6677.3789 C -13781.538 6678.0883 -13781.568 6678.798 -13781.598 6679.5078 C -13781.786 6679.0075 -13782.194 6678.5821 -13782.713 6678.4297 C -13783.416 6678.1995 -13784.261 6678.4131 -13784.723 6679.0039 C -13785.19 6679.5641 -13785.352 6680.2964 -13785.564 6680.9766 C -13786.218 6683.2853 -13786.508 6685.6725 -13786.916 6688.0312 C -13789.176 6686.5303 -13791.334 6684.8812 -13793.455 6683.1914 C -13793.475 6683.1304 -13793.375 6683.0651 -13793.355 6683.0039 C -13792.371 6681.546 -13791.142 6680.2657 -13790.217 6678.7637 C -13786.421 6673.2002 -13783.555 6667.0769 -13780.861 6660.9238 C -13777.799 6653.8736 -13775.142 6646.6586 -13772.463 6639.457 z M -13760.754 6643.6934 C -13760.754 6643.7064 -13760.773 6643.7185 -13760.783 6643.7305 L -13760.779 6643.7305 C -13761.007 6644.0676 -13761.212 6644.4216 -13761.406 6644.7793 C -13761.664 6644.2663 -13762.165 6643.881 -13762.729 6643.7695 C -13762.07 6643.7365 -13761.413 6643.6964 -13760.754 6643.6934 z M -13763.744 6643.8379 C -13764.18 6643.9797 -13764.553 6644.2742 -13764.828 6644.6387 C -13765.183 6645.07 -13765.419 6645.583 -13765.656 6646.084 C -13765.736 6645.4181 -13765.804 6644.7491 -13765.807 6644.0781 C -13765.123 6643.9645 -13764.434 6643.8917 -13763.744 6643.8379 z M -13758.102 6643.8613 L -13758.096 6643.8613 C -13754.569 6644.3069 -13751.126 6645.7242 -13748.441 6648.082 C -13747.549 6648.8618 -13746.735 6649.7331 -13746.014 6650.6699 C -13748.402 6648.7736 -13751.177 6647.3742 -13754.115 6646.5605 C -13754.145 6646.4955 -13754.126 6646.4174 -13754.156 6646.3516 C -13754.366 6645.5218 -13755.194 6644.8675 -13756.061 6644.9375 C -13756.773 6644.9795 -13757.402 6645.4465 -13757.762 6646.0449 C -13757.842 6646.1239 -13757.946 6646.1722 -13758.053 6646.2012 C -13758.053 6645.4217 -13758.082 6644.6389 -13758.102 6643.8613 z M -13758.566 6681.6191 C -13758.546 6681.6291 -13758.528 6681.6355 -13758.508 6681.6445 L -13758.514 6681.6445 C -13758.345 6681.7255 -13758.175 6681.8061 -13758.006 6681.8867 C -13758.474 6683.6076 -13758.92 6685.3352 -13759.434 6687.043 C -13760.385 6686.253 -13761.27 6685.3913 -13762.164 6684.5391 C -13760.993 6683.5326 -13759.764 6682.5946 -13758.566 6681.6191 z M -13827.174 6689.791 C -13827.194 6689.859 -13827.214 6689.9282 -13827.234 6689.9961 C -13828.593 6694.5476 -13830.109 6699.0497 -13831.648 6703.543 C -13837.025 6719.1337 -13843.125 6734.4687 -13848.279 6750.1367 C -13846.048 6742.964 -13843.741 6735.8136 -13841.268 6728.7207 C -13836.711 6715.6936 -13831.828 6702.7833 -13827.174 6689.791 z M -13650.098 6716.7109 C -13641.847 6720.6451 -13633.489 6724.3575 -13625.117 6728.0273 C -13618.255 6731.0311 -13611.38 6734.009 -13604.486 6736.9453 C -13602.519 6737.7851 -13600.552 6738.6228 -13598.584 6739.4609 C -13601.617 6738.3137 -13604.627 6737.1056 -13607.639 6735.9043 C -13622.057 6730.1184 -13636.244 6723.7483 -13650.098 6716.7109 z M -13586.086 6744.793 C -13585.617 6744.9941 -13585.149 6745.1934 -13584.68 6745.3945 C -13577.143 6748.629 -13569.611 6751.8776 -13562.145 6755.2734 C -13570.78 6752.3578 -13579.535 6749.8238 -13588.285 6747.2812 C -13588.497 6747.2203 -13588.71 6747.1586 -13588.922 6747.0977 C -13588.513 6747.1787 -13588.105 6747.2859 -13587.689 6747.3203 C -13587.303 6747.3483 -13586.913 6747.226 -13586.609 6746.9863 C -13586.061 6746.5749 -13585.76 6745.8291 -13585.949 6745.1582 C -13585.979 6745.0318 -13586.031 6744.9097 -13586.086 6744.793 z M -13778.357 6749.4141 C -13778.153 6749.6414 -13777.951 6749.8683 -13777.748 6750.0957 C -13771.365 6757.2678 -13765.01 6764.4797 -13759.115 6772.0645 C -13755.95 6776.1485 -13752.962 6780.371 -13750.229 6784.7578 C -13748.511 6787.5109 -13746.89 6790.3236 -13745.383 6793.1973 C -13750.743 6784.2588 -13756.957 6775.8692 -13763.414 6767.6992 C -13768.027 6761.8723 -13772.774 6756.1518 -13777.516 6750.4297 C -13777.797 6750.0912 -13778.075 6749.7526 -13778.357 6749.4141 z "
         style="display:inline;fill:#ffffff;fill-opacity:1;stroke-width:0.439632"
         id="path3776"
         d="m -13768.338,6617.7344 c -1.016,-0.7545 -3.708,2.9241 -2.683,1.9844 -4.721,9.5964 -9.238,19.2979 -13.479,29.121 -3.421,7.7232 -6.874,15.4171 -10.93,22.7735 -1.232,2.1453 -2.677,4.138 -4.236,6.0234 -1.202,-1.1616 -2.335,-2.4178 -3.467,-3.7773 -2.991,-3.7858 -5.577,-7.8937 -7.849,-12.1719 l -0,-0.01 c -10e-4,-0 -0,-0 -0,-0 -1.778,-3.4485 -3.204,-7.0777 -3.957,-10.8399 a 1.0102494,1.0102494 0 0 0 -0,-0.01 c -0.394,-1.8617 -0.731,-3.7679 -1.186,-5.6797 a 1.0102494,1.0102494 0 0 0 -1.74,-0.4336 c -2.653,3.0088 -5.097,6.1188 -7.965,8.7148 a 1.0102494,1.0102494 0 0 0 -0.02,0.02 c -5.762,5.5306 -11.73,10.8438 -17.985,15.789 a 1.0102494,1.0102494 0 0 0 0,0 c -2.335,1.8511 -4.717,3.645 -7.125,5.414 a 1.0102494,1.0102494 0 0 0 -0,0 c -8.533,6.2929 -17.344,12.2239 -26.133,18.209 -10.871,7.355 -21.85,14.6095 -32.38,22.5312 a 1.0102494,1.0102494 0 0 0 -0,0 c -10.89,8.2216 -21.264,17.255 -30.243,27.6211 -8.461,9.7454 -15.694,20.5788 -21.281,32.2305 -4.432,9.1954 -7.88,18.8397 -10.527,28.6758 a 1.0102494,1.0102494 0 0 0 -0,0.023 c -0.09,0.3649 -0.202,0.7929 -0.24,1.291 a 1.0102494,1.0102494 0 0 0 0,0.1758 c 0.134,1.3645 1.397,2.2401 2.703,1.9961 0.696,-0.1262 1.124,-0.5429 1.402,-0.8184 l -0.04,0.039 c 2.14,-1.8961 4.248,-3.8069 6.405,-5.6387 3.26,-2.7793 6.63,-5.4137 10.216,-7.6953 a 1.0102494,1.0102494 0 0 0 0,-0 c 5.311,-3.4116 11.077,-6.153 17.17,-7.6582 a 1.0102494,1.0102494 0 0 0 0,0 c 8.209,-2.0433 16.92,-2.1201 25.131,-0.1016 6.54,1.6307 12.729,4.5925 18.303,8.416 6.519,4.4957 12.093,10.3102 16.703,16.7754 3.812,5.3527 6.933,11.2126 9.047,17.418 a 1.0102494,1.0102494 0 0 0 0,0 c 0.578,1.6694 1.065,3.3921 1.568,5.1308 a 1.0102494,1.0102494 0 0 0 0,0.012 c 0.172,0.569 0.34,1.3617 0.935,2.0879 a 1.0102494,1.0102494 0 0 0 0.02,0.021 c 0.549,0.6317 1.303,0.8943 2.008,0.9375 0.733,0.046 1.451,-0.1769 2.041,-0.6132 1.534,-0.9555 2.685,-2.2135 3.836,-3.2383 a 1.0102494,1.0102494 0 0 0 0.01,-0.01 c 9.792,-9.0088 21.861,-15.5644 34.775,-18.7637 5.111,-1.2557 10.37,-1.89 15.646,-2.039 a 1.0102494,1.0102494 0 0 0 0,0 c 4.483,-0.1361 8.972,0.03 13.416,0.5547 6.646,0.8237 13.166,2.6361 19.358,5.2168 6.519,2.7175 12.667,6.3365 18.199,10.7265 5.478,4.3367 10.333,9.4504 14.531,15.0508 a 1.0102494,1.0102494 0 0 0 0,0 c 1.343,1.7853 2.613,3.6285 3.842,5.5078 a 1.0102494,1.0102494 0 0 0 0,0.012 c 0.788,1.1701 1.656,2.434 2.902,3.4394 a 1.0102494,1.0102494 0 0 0 0.03,0.025 c 0.725,0.5345 1.624,0.6319 2.426,0.3887 0.782,-0.2281 1.428,-0.7504 1.82,-1.4473 l -0.09,0.1289 c 2.899,-3.6714 5.861,-7.267 9.168,-10.498 a 1.0102494,1.0102494 0 0 0 0.01,-0.014 c 4.542,-4.61 9.452,-8.862 14.842,-12.3906 a 1.0102494,1.0102494 0 0 0 0,-0 c 9.47,-6.2768 20.272,-10.6135 31.51,-12.25 12.791,-1.8769 26.043,-0.4136 38.185,4.0234 7.071,2.5714 13.827,6.0303 19.973,10.3594 3.161,2.2467 6.117,4.7851 8.83,7.5606 a 1.0102494,1.0102494 0 0 0 0.01,0.01 c 0.899,0.8935 1.801,1.854 2.828,2.7442 a 1.0102494,1.0102494 0 0 0 0.1,0.074 c 0.86,0.5802 1.966,0.5426 2.789,-0.096 0.605,-0.4439 0.915,-1.0686 1.069,-1.6367 l -0.05,0.1367 c 1.235,-2.8613 3.014,-5.5204 4.738,-8.2774 l 0,-0.01 c 3.619,-5.6734 8.1,-10.7921 13.18,-15.2168 a 1.0102494,1.0102494 0 0 0 0,-0 c 6.587,-5.7602 14.2,-10.3547 22.4,-13.3946 a 1.0102494,1.0102494 0 0 0 0,0 c 11.453,-4.277 24.02,-5.6653 36.086,-3.6972 a 1.0102494,1.0102494 0 0 0 0,0 c 10.557,1.7044 20.713,5.8401 29.49,11.9531 a 1.0102494,1.0102494 0 0 0 0,0 c 3.135,2.1698 6.102,4.6034 9.012,7.1211 a 1.0102494,1.0102494 0 0 0 0.03,0.025 c 0.437,0.349 1.027,0.868 1.922,1.0254 a 1.0102494,1.0102494 0 0 0 0.06,0.01 c 1.563,0.1702 2.956,-1.0068 3.02,-2.5878 a 1.0102494,1.0102494 0 0 0 0,-0.01 c 0.03,-0.9916 -0.443,-1.6938 -0.691,-2.1738 -1.101,-2.2198 -2.217,-4.4375 -3.391,-6.6328 v -0 c -3.9,-7.3218 -8.267,-14.4067 -13.152,-21.125 l -0,-0 c -11.265,-15.5565 -25.104,-29.2852 -40.959,-40.166 h -0 c -10.376,-7.1419 -21.39,-13.3551 -32.86,-18.5586 -10.811,-4.9375 -21.881,-9.2377 -32.968,-13.4141 -17.628,-6.6257 -35.429,-12.7126 -52.879,-19.6523 l -0,-0 c -10.401,-4.1561 -20.666,-8.6481 -30.606,-13.7715 l -0,-0 c -6.035,-3.1276 -11.937,-6.5165 -17.761,-10.043 h -0 c -2.654,-1.6133 -5.287,-3.2443 -7.866,-4.9492 h -0 c -2.627,-1.7444 -5.196,-3.5832 -7.738,-5.4707 a 1.0102494,1.0102494 0 0 0 -0.02,-0.016 c -1.361,-0.9597 -2.767,-1.8881 -4.264,-2.7012 a 1.0102494,1.0102494 0 0 0 -0.186,-0.078 c -1.35,-0.4157 -2.62,0.6471 -2.529,2.0254 a 1.0102494,1.0102494 0 0 0 0.02,0.1504 c 0.104,0.4755 0.246,0.901 0.365,1.289 a 1.0102494,1.0102494 0 0 0 0,0.01 c 0.971,3.0412 2.138,5.9403 2.701,8.9062 1.11,5.9277 0.182,12.268 -2.758,17.5274 -1.687,3.0204 -4.028,5.6787 -6.734,7.873 a 1.0102494,1.0102494 0 0 0 -0,0.01 c -1.603,1.3249 -3.312,2.4982 -5.152,3.3613 a 1.0102494,1.0102494 0 0 0 -0,0 c -1.17,0.5513 -2.408,0.9942 -3.68,1.4102 -0,2e-4 -0,-2e-4 -0,0 -0,4e-4 -0,0 -0,0 -2.891,0.9195 -5.911,1.3852 -8.91,1.3184 1.481,-2.8033 3.087,-5.5566 4.662,-8.3809 l 0,-0.01 c 1.83,-3.203 3.676,-6.4697 5.066,-9.9903 a 1.0102494,1.0102494 0 0 0 0.01,-0.033 c 0.377,-1.0615 0.514,-2.0956 0.684,-3.0508 0.223,-0.5276 0.786,-1.0709 1.371,-1.8789 1.774,-2.3707 2.833,-5.1736 3.353,-8.0097 v -0 c 0.443,-2.4096 0.461,-4.8519 0.264,-7.2344 l 0,0.01 c -0.08,-1.1037 -0.186,-2.0771 0.02,-2.8867 v -0 c 0.311,-1.2006 0.929,-2.4229 1.424,-3.8125 0.997,-2.6313 1.723,-5.363 2.166,-8.1406 0.518,-3.1072 0.766,-6.2504 0.803,-9.3868 a 1.0102494,1.0102494 0 0 0 -0,-0.1 c -0.1,-1.1199 -0.857,-2.1289 -2.039,-2.3926 -1.292,-0.3201 -2.662,0.2825 -3.217,1.543 l 0.04,-0.086 c -1.517,2.7188 -3.028,5.3978 -4.664,7.9824 -1.582,-1.5821 -3.193,-3.2174 -5.143,-4.5664 -3.624,-2.5606 -7.937,-4.0117 -12.304,-4.4199 -2.522,-0.2778 -5.016,-0.2713 -7.485,-0.293 -0.124,-5.3493 -0.232,-10.7031 -0.4,-16.0605 a 1.0102494,1.0102494 0 0 0 -0,-0.098 c -0.176,-1.3669 -1.341,-2.3449 -2.699,-2.3281 a 1.0102494,1.0102494 0 0 0 -0,0 z m -4.721,26.0195 c 0.465,4.4555 0.939,8.9082 1.235,13.3613 0.04,0.6238 0.08,1.3059 0.238,2.0196 a 1.0102494,1.0102494 0 0 0 0.03,0.1035 c 0.01,0.04 0.05,0.068 0.07,0.1074 -2.196,0.4787 -4.33,1.1246 -6.362,1.7227 a 1.0102494,1.0102494 0 0 0 -0.724,0.9257 c -0.128,3.0251 -0.09,5.9804 -0.242,8.8985 -0.372,-0.061 -0.751,-0.1153 -1.16,-0.018 a 1.0102494,1.0102494 0 0 0 -0,0 c -1.278,0.316 -2.187,1.4376 -2.219,2.7597 -0.156,1.2529 -0.215,2.4832 -0.299,3.6719 a 1.0102494,1.0102494 0 0 0 0,0.014 c -0,0.048 -0,0.096 -0,0.1445 -1.072,-0.3052 -2.259,-0.02 -2.992,0.9043 -0.661,0.8008 -0.832,1.6852 -1.025,2.3047 a 1.0102494,1.0102494 0 0 0 -0,0.025 c -0.531,1.8726 -0.777,3.7273 -1.07,5.5644 -1.512,-1.057 -3.003,-2.1538 -4.463,-3.3047 0.855,-1.1549 1.848,-2.2697 2.705,-3.6582 3.846,-5.6447 6.732,-11.817 9.427,-17.9746 a 1.0102494,1.0102494 0 0 0 0,-0 c 2.513,-5.7863 4.681,-11.6879 6.875,-17.5723 z m 16.916,0.1758 c 0,0 0.01,0 0.01,0 -0,3e-4 -0,-0 -0.01,-0 z m -9.464,0.066 c -0,0.01 -0,0.017 -0.02,0.025 -0,0 -0,0.01 -0.01,0.01 z m 7.212,1.2793 c -0.387,0.4869 -0.249,0.1325 0,0 z m -24.033,32.1855 c 0.01,0 0.02,0.01 0.01,0.01 -0,-0 -0,-0.01 -0.01,-0.01 z m -10.097,6.086 c 0,0.136 0.273,-0.3377 0,0 z m 32.961,0.1836 c -0.132,0.4867 -0.268,0.9724 -0.403,1.455 -0.216,-0.1997 -0.436,-0.3944 -0.652,-0.5996 0.346,-0.284 0.7,-0.5726 1.055,-0.8554 z m 174.587,61.1543 c 0,0.014 0,0.023 0,0.014 -10e-4,-0 0,-0.01 0,-0.014 z m -0.06,1.455 c 2.213,0.95 4.403,1.945 6.613,2.9004 -2.355,-0.6976 -4.693,-1.4691 -7.049,-2.1543 0.172,-0.2437 0.35,-0.4602 0.436,-0.7461 z m -0.949,1.4395 c -0,0.01 -0.01,0.01 -0,0 0,-0 0,-2e-4 0,-0 z" />
      <path
         style="display:inline;fill:#34a5d1;stroke-width:0.439632"
         d="m -13733.763,6845.2585 c -11.863,-18.1998 -30.53,-30.7332 -52.191,-35.0416 -6.864,-1.3652 -18.839,-1.6792 -25.719,-0.6743 -17.6,2.5709 -32.308,9.6501 -45.56,21.9286 -2.875,2.6639 -3.239,2.8709 -3.239,1.8455 0,-1.6911 -3.443,-10.6809 -5.993,-15.6481 -5.779,-11.256 -15.005,-21.4143 -25.001,-27.5278 -21.415,-13.0969 -44.626,-11.5743 -66.072,4.3338 -2.246,1.6662 -5.684,4.5574 -7.642,6.4246 -3.526,3.3664 -3.553,3.3821 -3.228,1.8565 0.671,-3.156 5.05,-15.7877 7.237,-20.8825 3.936,-9.1659 8.837,-17.8328 14.824,-26.2154 4.746,-6.6456 7.858,-10.3003 14.866,-17.4642 12.617,-12.8975 23.309,-21.2382 51.666,-40.3015 32.141,-21.6086 41.707,-28.8986 55.222,-42.0874 l 6.65,-6.4885 0.539,2.7445 c 1.54,7.8236 8.937,20.8002 15.561,27.2973 l 2.159,2.1172 1.506,-1.4577 c 3.634,-3.5171 9.105,-13.9469 17.716,-33.7708 2.467,-5.6822 6.198,-13.7935 8.29,-18.0249 l 3.804,-7.6936 0.25,9.2323 c 0.139,5.0777 0.287,9.2438 0.331,9.2578 0.05,0.014 1.833,-0.059 3.979,-0.1611 4.324,-0.2067 9.642,0.664 13.095,2.1443 3.074,1.3177 7.202,4.4361 8.914,6.7342 0.83,1.1154 1.625,2.0281 1.765,2.0281 0.378,0 2.934,-4.0088 5.149,-8.0761 l 1.946,-3.5742 -0.284,3.9567 c -0.412,5.7184 -1.266,9.7952 -2.845,13.5907 -1.292,3.1011 -1.395,3.7425 -1.492,9.1599 -0.118,6.6 -0.712,8.8373 -3.079,11.6031 -0.883,1.031 -1.58,2.4217 -1.766,3.5219 -0.4,2.3681 -2.04,5.7885 -6.338,13.2221 -4.14,7.1611 -5.607,10.1084 -5.222,10.4935 0.484,0.4841 7.905,0.3079 10.663,-0.2533 1.447,-0.2943 4.263,-1.2946 6.259,-2.2229 7.841,-3.6471 12.975,-9.294 15.773,-17.35 1.083,-3.1164 1.223,-4.1429 1.223,-9.0124 0,-5.0112 -0.118,-5.844 -1.366,-9.4521 -0.752,-2.1762 -1.296,-4.031 -1.21,-4.1217 0.09,-0.091 1.503,0.8269 3.145,2.0393 9.403,6.9421 22.154,14.5796 35.299,21.1417 15.887,7.9321 28.188,12.9664 58.747,24.0437 35.365,12.8197 47.422,17.6668 61.585,24.7571 21.031,10.5274 35.069,20.4117 49.375,34.764 12.281,12.322 23.089,27.3703 31.031,43.2067 2.564,5.1119 2.539,5.1519 -1.183,1.8924 -8.851,-7.752 -21.289,-13.8463 -33.814,-16.5668 -3.99,-0.8667 -5.898,-1.0041 -14.068,-1.0137 -10.942,-0.013 -15.555,0.6971 -24.486,3.7693 -18.015,6.1969 -34.027,19.9818 -42.341,36.4524 l -1.361,2.6952 -4.277,-4.0988 c -12.794,-12.2654 -31.189,-20.0595 -50.565,-21.4245 -20.427,-1.439 -40.167,5.0892 -56.959,18.8363 -3.725,3.0493 -12.375,11.9022 -15.384,15.7449 -1.183,1.5113 -2.271,2.7335 -2.416,2.7161 -0.146,-0.017 -1.707,-2.243 -3.468,-4.9458 z m -11.482,-165.6463 c 1.451,-1.552 1.762,-3.304 0.506,-2.8418 -4.237,1.5601 -6.704,2.6534 -6.704,2.972 0,0.561 1.755,1.1753 3.45,1.2074 1.101,0.021 1.794,-0.3162 2.748,-1.3376 z m -17.456,-4.4597 c -0.899,-1.7651 -7.814,-8.6827 -8.678,-8.6827 -0.543,0 -0.538,0.3206 0.04,2.308 0.366,1.2695 0.888,2.586 1.161,2.9257 1.154,1.4395 6.205,4.8778 7.166,4.8778 1.035,0 1.038,-0.013 0.316,-1.4288 z"
         id="path3774"
         inkscape:connector-curvature="0" />
      <path
         style="display:inline;fill:#247290;stroke-width:0.439632"
         d="m -13731.801,6848.0262 c -4.087,-7.2758 -13.488,-17.6491 -20.961,-23.1261 -5.752,-4.216 -7.792,-5.4513 -13.628,-8.2534 -28.55,-13.7055 -62.884,-9.1354 -87.267,11.6156 -1.935,1.6463 -4.099,3.6039 -4.809,4.3503 -1.445,1.5187 -2.006,1.6986 -2.006,0.6433 0,-1.3574 -3.09,-9.9425 -5.045,-14.015 -3.435,-7.157 -7.691,-13.0269 -14.043,-19.3679 -13.052,-13.028 -27.716,-19.2259 -43.779,-18.5036 -14.582,0.6558 -27.815,6.7152 -41.292,18.909 -2.037,1.8427 -3.763,3.2916 -3.834,3.2196 -0.284,-0.2838 3.445,-11.8212 5.497,-17.0087 7.855,-19.8538 17.039,-33.6734 33.032,-49.6983 12.96,-12.9856 22.455,-20.2795 53.858,-41.3683 28.569,-19.187 39.113,-27.3216 52.144,-40.2328 l 5.983,-5.9285 0.295,1.8998 c 1.251,8.0994 11.14,25.2229 16.962,29.3679 l 1.35,0.9612 1.295,-1.3875 c 3.663,-3.9207 9.036,-14.1985 17.353,-33.1967 3.069,-7.0121 7.099,-15.8158 8.954,-19.5636 l 3.374,-6.8143 0.242,9.2323 c 0.133,5.0777 0.282,9.2323 0.33,9.2323 10.127,0 11.359,0.1052 14.738,1.2595 4.423,1.5101 7.37,3.4205 10.495,6.8012 1.377,1.4906 2.596,2.7103 2.708,2.7103 0.328,0 3.562,-5.2709 5.088,-8.2939 0.774,-1.5323 1.491,-2.7017 1.594,-2.5987 0.343,0.343 -0.711,9.7558 -1.384,12.3568 -0.364,1.4099 -1.167,3.685 -1.785,5.0558 -1.001,2.22 -1.135,3.1409 -1.231,8.4275 -0.125,6.809 -0.702,8.9502 -3.203,11.8719 -0.994,1.1615 -1.653,2.4297 -1.748,3.3685 -0.216,2.0991 -1.719,5.3311 -5.527,11.8822 -1.798,3.0965 -3.986,7.049 -4.859,8.7835 l -1.588,3.1535 2.781,0.2978 c 3.207,0.3434 7.964,-0.2944 11.862,-1.5902 6.114,-2.0328 12.845,-7.407 16.03,-12.7996 4.581,-7.7555 5.249,-17.5999 1.792,-26.3965 -0.452,-1.1485 -0.734,-2.0882 -0.629,-2.0882 0.107,0 2.034,1.3282 4.28,2.9516 21.495,15.5237 46.468,27.5904 88.497,42.7614 45.082,16.273 60.54,22.7466 77.597,32.4986 30.742,17.5764 52.955,40.69 68.645,71.4294 l 2.665,5.222 -4.332,-3.5393 c -18.126,-14.809 -40.072,-20.3971 -62.359,-15.8777 -21.726,4.4061 -41.925,19.6682 -51.631,39.0113 l -1.395,2.7812 -4.495,-4.3198 c -10.918,-10.4946 -26.17,-17.7135 -43.599,-20.6369 -6.181,-1.0366 -17.867,-1.0412 -24.116,-0.01 -21.114,3.4867 -39.076,14.5343 -54.74,33.6671 -1.297,1.5852 -2.485,2.9315 -2.638,2.9918 -0.152,0.06 -0.836,-0.8846 -1.518,-2.0994 z m -1.387,-26.8466 c -3.061,-13.5606 -9.288,-27.7447 -17.75,-40.4343 -6.987,-10.4771 -11.905,-16.5191 -28.422,-34.9219 -9.751,-10.8635 -14.218,-16.1024 -18.556,-21.7619 -14.993,-19.5609 -21.878,-37.9529 -22.132,-59.1304 l -0.03,-2.6378 -1.442,5.0659 c -2.37,8.3277 -4.806,15.3849 -13.123,38.0181 -14.294,38.8982 -18.978,54.0102 -22.687,73.1986 -2.316,11.9848 -2.802,16.8833 -2.94,29.6753 -0.103,9.5687 -0.06,10.9324 0.266,7.034 2.623,-32.1773 6.438,-47.2708 23.836,-94.3011 7.235,-19.5585 10.297,-28.872 13.072,-39.7609 2.314,-9.08 2.145,-9.0178 3.02,-1.1167 2.078,18.7542 12.21,36.5873 38.975,68.6031 16.766,20.0542 25.232,31.0588 31.769,41.2967 7.197,11.2705 12.131,21.321 15.356,31.2832 0.912,2.8187 1.717,5.0691 1.787,5.0008 0.07,-0.068 -0.378,-2.3681 -0.997,-5.1107 z m 128.841,-1.4826 c -5.904,-16.5173 -20.814,-30.3155 -50.157,-46.4167 -9.695,-5.3197 -22.06,-11.3009 -42.205,-20.4157 -37.76,-17.0844 -52.4,-24.1717 -65.945,-31.9229 -22.202,-12.7058 -38.086,-25.9968 -46.967,-39.2999 -2.63,-3.9382 -2.629,-3.3823 0,1.1771 6.8,11.7892 17.537,22.2085 34.01,33.0049 14.103,9.2423 31.729,18.2442 65.492,33.4463 40.559,18.2624 55.084,25.6766 70.341,35.905 17.25,11.5645 29.842,24.7012 35.521,37.0575 1.718,3.7384 1.67,2.3928 -0.09,-2.5356 z m 114.254,-15.9522 c -4.187,-6.5611 -10.585,-13.5078 -17.753,-19.2765 -16.442,-13.2316 -37.228,-24.1311 -82.911,-43.4758 -45.7,-19.3518 -61.584,-26.6297 -78.399,-35.9228 -18.368,-10.1508 -32.001,-19.8542 -43.497,-30.958 -2.724,-2.6313 -4.95,-4.6559 -4.946,-4.4988 0.02,0.5545 3.149,4.9446 5.316,7.4464 1.207,1.3936 4.118,4.2027 6.467,6.2424 24.053,20.8839 69.849,44.8357 118.748,62.1062 0.337,0.119 0.523,0.3062 0.413,0.4159 -0.245,0.2454 -51.128,-12.4104 -70.707,-17.5864 -33.398,-8.8296 -66.031,-18.0949 -77.264,-21.9371 -2.947,-1.0079 -3.328,-1.0443 -5.057,-0.4828 -1.028,0.3339 -2.225,0.6682 -2.662,0.7428 -0.437,0.075 3.025,1.1901 7.693,2.4788 27.893,7.6999 52.191,14.314 80.969,22.0411 52.342,14.0541 57.575,15.4994 74.136,20.4751 41.37,12.4297 57.498,21.3727 81.772,45.3424 4.473,4.4173 8.205,8.037 8.293,8.0438 0.09,0.01 -0.187,-0.5317 -0.611,-1.1967 z m -295.433,-114.0844 c 0.123,-0.5441 0.422,-2.2894 0.664,-3.8786 0.241,-1.5891 0.723,-3.6663 1.071,-4.6161 l 0.632,-1.7268 0.03,3.128 c 0.02,2.4675 0.224,3.3727 0.942,4.2865 0.502,0.6371 1.065,1.1584 1.254,1.1584 0.189,0 0.473,-1.929 0.632,-4.2865 0.159,-2.3575 0.412,-5.7157 0.564,-7.4626 l 0.276,-3.1763 1.313,1.1061 c 0.724,0.6083 1.439,0.9833 1.59,0.8334 0.151,-0.15 0.373,-2.8708 0.494,-6.0463 l 0.22,-5.7736 2.631,-0.7998 c 1.448,-0.4398 3.487,-0.843 4.534,-0.896 l 1.904,-0.096 1.415,4.1954 c 1.313,3.8911 3.651,8.6334 4.057,8.2276 0.1,-0.096 -0.249,-1.3485 -0.768,-2.7821 -0.615,-1.6987 -1.015,-4.0617 -1.148,-6.7833 -0.117,-2.3932 -0.415,-4.3144 -0.699,-4.4995 -0.273,-0.1776 -1.507,-0.326 -2.744,-0.3297 l -2.246,-0.01 -0.303,-3.8468 c -0.519,-6.6113 -2.032,-20.9522 -2.305,-21.8377 -0.171,-0.5585 -1.71,3.0219 -4.536,10.5512 -4.999,13.3186 -7.192,18.5702 -10.245,24.5396 -2.159,4.2235 -6.136,10.4778 -8.46,13.3041 l -1.141,1.3883 4.752,3.5507 c 2.613,1.953 4.896,3.5539 5.071,3.5576 0.178,0 0.424,-0.4382 0.547,-0.9823 z m 28.359,-4.4741 1.011,-3.9245 -1.007,-0.816 c -0.554,-0.4487 -1.173,-0.76 -1.375,-0.6916 -0.582,0.1968 -6.06,4.4935 -6.078,4.767 -0.04,0.5342 5.847,5.2747 6.133,4.9432 0.168,-0.1944 0.761,-2.1196 1.316,-4.2781 z m 10.989,-4.6428 c 0.958,-0.5124 2.866,-3.4522 2.486,-3.8313 -0.339,-0.3387 -7.751,2.5184 -7.751,2.9876 0,1.1042 3.678,1.6935 5.265,0.8437 z m -16.54,-5.4159 c -0.928,-1.8102 -7.749,-8.6578 -8.624,-8.6578 -0.593,0 -0.597,0.2561 -0.03,2.308 0.5,1.7998 1.134,2.7658 2.883,4.3863 2.301,2.1322 5.476,3.9945 6.125,3.593 0.202,-0.1241 0.04,-0.8574 -0.355,-1.6295 z m 18.867,-1.7632 c 1.591,-1.4723 1.674,-1.4976 2.129,-0.6491 0.32,0.5986 0.616,0.7389 0.919,0.4358 0.303,-0.3031 0.188,-0.8848 -0.355,-1.8057 -0.442,-0.7472 -0.914,-1.3586 -1.048,-1.3586 -0.136,0 -1.725,1.5037 -3.533,3.3415 -3.086,3.1388 -3.179,3.2877 -1.528,2.4549 0.968,-0.4876 2.504,-1.5761 3.416,-2.4188 z m -75.875,-12.6922 c -0.14,-0.3508 -0.243,-0.2466 -0.265,0.2655 -0.02,0.4634 0.09,0.7231 0.231,0.5771 0.147,-0.1461 0.162,-0.5253 0.04,-0.8426 z m 78.597,-3.9823 c -3.636,-11.2071 -12.336,-16.0918 -25.175,-14.1332 l -1.452,0.2215 0.268,2.064 c 0.496,3.8427 0.544,3.9423 1.75,3.7116 0.608,-0.1163 1.106,-0.4632 1.106,-0.7709 0,-0.3077 0.389,-1.0265 0.865,-1.5974 l 0.864,-1.0379 0.02,1.4289 c 0.02,1.8989 1.64,1.8989 2.341,0 0.394,-1.0668 1.161,-0.9708 0.878,0.1098 -0.197,0.7577 -0.01,0.8793 1.335,0.8793 0.859,0 1.686,-0.1979 1.835,-0.4396 0.415,-0.6707 1.104,-0.5237 0.835,0.178 -0.164,0.4243 0.22,0.7153 1.222,0.9291 4.415,0.9418 9.758,4.9593 12.343,9.2796 1.656,2.7689 2.031,2.4505 0.97,-0.8228 z"
         id="path3772"
         inkscape:connector-curvature="0" />
      <path
         style="display:inline;fill:#195268;stroke-width:0.439632"
         d="m -13733.069,6845.9828 c -12.399,-18.8794 -30.556,-31.3374 -52.06,-35.7194 -9.206,-1.8764 -21.956,-1.8878 -31.546,-0.029 -14.65,2.8404 -29.134,10.3475 -40.164,20.816 -2.093,1.9864 -3.251,2.8144 -3.383,2.4197 -0.111,-0.3302 -0.631,-2.0839 -1.156,-3.8974 -4.478,-15.4726 -16.479,-31.2631 -30.088,-39.5867 -10.478,-6.4091 -20.857,-9.1835 -32.286,-8.6316 -14.548,0.7025 -27.064,6.5397 -41.448,19.331 l -3.395,3.0178 0.671,-2.3425 c 8.771,-30.6065 24.656,-54.6138 50.22,-75.8951 9.499,-7.9083 17.486,-13.7005 36.895,-26.7565 24.006,-16.1485 34.088,-23.3761 43.418,-31.1272 5.573,-4.6294 15.057,-13.4217 17.267,-16.0068 l 2.022,-2.3645 0.554,2.7176 c 1.3,6.3761 5.063,13.9211 10.997,22.0518 2.68,3.6706 6.3,7.4367 7.149,7.4367 0.559,0 3.023,-3.0658 5.299,-6.5945 2.514,-3.8963 7.813,-14.8418 13.197,-27.2572 2.463,-5.6822 6.292,-14.073 8.508,-18.6464 l 4.03,-8.315 0.219,9.1659 0.219,9.1659 5.276,0.068 c 8.976,0.1168 14.123,2.1051 19.463,7.5186 1.757,1.7823 3.265,3.2404 3.348,3.2404 0.274,0 2.596,-3.6579 4.662,-7.3452 l 2.022,-3.6083 -0.157,2.9488 c -0.276,5.1729 -1.272,9.9319 -2.947,14.069 -1.532,3.7841 -1.611,4.2134 -1.336,7.2226 0.531,5.8124 -0.777,10.7567 -3.735,14.126 -0.735,0.8367 -1.317,2.0005 -1.317,2.6338 0,1.9098 -1.592,5.3307 -6.144,13.1964 -2.398,4.1439 -4.664,8.2624 -5.035,9.1522 l -0.676,1.6179 2.413,0.3016 c 5.244,0.6551 12.525,-1.0129 17.792,-4.0756 1.57,-0.9129 4.352,-3.1445 6.183,-4.9591 7.802,-7.7309 10.37,-19.1982 6.72,-29.9976 l -1.299,-3.8416 1.124,0.7214 c 0.618,0.3967 1.816,1.2544 2.663,1.906 7.749,5.9656 26.566,17.0447 38.555,22.7012 16.731,7.8934 27.237,12.0837 59.922,23.8994 44.407,16.0534 61.257,23.7525 81.027,37.0247 23.726,15.9267 43.125,38.213 56.613,65.0396 l 1.779,3.5385 -3.654,-3.0725 c -23.201,-19.5042 -54.024,-23.3711 -81.077,-10.1716 -10.388,5.0686 -20.068,13.1053 -27.114,22.5102 -2.348,3.1354 -6.345,9.5449 -7.37,11.82 l -0.529,1.1736 -3.625,-3.6005 c -9.506,-9.4418 -25.142,-17.439 -40.01,-20.463 -24.339,-4.9506 -47.997,1.0444 -67.821,17.1867 -4.563,3.7157 -11.161,10.3355 -14.593,14.6411 -1.541,1.9344 -2.943,3.6804 -3.114,3.88 -0.171,0.1997 -1.587,-1.5808 -3.148,-3.9566 z m 1.27,-18.2505 c -0.14,-0.3507 -0.244,-0.2465 -0.265,0.2656 -0.02,0.4635 0.08,0.7232 0.23,0.5771 0.147,-0.1461 0.162,-0.5253 0.04,-0.8427 z m -1.191,-6.1859 c -2.198,-10.2504 -7.176,-23.0183 -12.741,-32.6811 -7.371,-12.7993 -14.142,-21.4942 -33.857,-43.4816 -12.635,-14.0917 -18.503,-21.2802 -23.697,-29.0303 -11.078,-16.5263 -15.625,-29.9695 -16.281,-48.1252 -0.17,-4.7149 -0.343,-8.1549 -0.384,-7.6443 -0.12,1.479 -3.466,13.0338 -5.652,19.5144 -1.101,3.2643 -5.711,16.0247 -10.248,28.3563 -17.734,48.2228 -22.963,68.1316 -24.623,93.7413 -0.363,5.6077 -0.189,19.3915 0.24,18.9218 0.06,-0.065 0.336,-3.5794 0.615,-7.8108 1.804,-27.3183 6.768,-47.0484 22.454,-89.2454 7.47,-20.0976 11.44,-32.0513 14.049,-42.3147 l 2.097,-8.2432 0.539,4.946 c 1.674,15.3474 8.631,30.6403 22.348,49.129 4.6,6.2003 8.084,10.5282 20.588,25.5776 15.259,18.3649 22.122,27.4173 28.985,38.2326 6.356,10.0146 12.601,23.2228 15.212,32.1743 1.351,4.6342 1.547,3.5314 0.356,-2.0167 z m 130.332,3.3008 c -1.189,-5.3818 -4.401,-12.3697 -8.135,-17.6952 -1.272,-1.8135 -4.801,-5.7821 -7.844,-8.8194 -14.093,-14.0667 -33.831,-25.5708 -78.731,-45.8864 -41.52,-18.7866 -54.522,-25.1725 -69.682,-34.225 -21.519,-12.8502 -36.065,-25.8459 -44.376,-39.6473 -1.997,-3.317 -2.003,-2.8379 0,1.115 4.708,9.3506 13.189,19.2048 23.944,27.824 13.38,10.7225 34.936,22.694 66.604,36.9897 6.771,3.0563 17.849,8.0585 24.62,11.1161 24.462,11.0475 43.8,21.1964 56.099,29.4422 9.217,6.1795 13.745,9.8635 20.619,16.7769 7.254,7.2972 11.251,12.6204 14.614,19.4705 1.27,2.5873 2.362,4.714 2.428,4.7261 0.07,0.012 0,-0.5223 -0.149,-1.1872 z m 112.931,-20.8047 c -3.502,-5.9573 -11.507,-14.5407 -19.104,-20.4862 -16.728,-13.0916 -35.973,-23.1843 -79.069,-41.4652 -55.056,-23.3545 -70.554,-30.6221 -90.345,-42.3643 -14.319,-8.497 -24.679,-16.2847 -34.469,-25.9141 l -5.454,-5.3646 1.459,2.7667 c 2.567,4.8699 10.846,12.8645 21.1,20.3757 24.144,17.6883 62.513,37.0822 102.433,51.7764 3.264,1.2016 5.738,2.1955 5.496,2.2088 -0.679,0.037 -49.752,-12.2088 -65.066,-16.2364 -35.442,-9.3218 -68.787,-18.7412 -80.796,-22.8231 l -3.86,-1.3122 -3.006,0.7633 -3.006,0.7633 9.944,2.7356 c 5.469,1.5047 17.066,4.6982 25.771,7.0971 8.704,2.3987 34.324,9.3322 56.932,15.4077 80.488,21.6297 94.487,26.0061 113.425,35.4565 14.791,7.3813 27.13,16.8149 43.296,33.1016 2.655,2.6754 4.893,4.8644 4.97,4.8644 0.08,0 -0.214,-0.608 -0.651,-1.351 z m -295.174,-117.352 c 0.499,-3.498 1.262,-6.5922 1.625,-6.5922 0.121,0 0.1,0.661 -0.06,1.4688 -0.484,2.5796 1.271,6.8843 2.806,6.8843 0.205,0 0.488,-3.2844 0.631,-7.2987 0.142,-4.0143 0.371,-7.4112 0.509,-7.5488 0.137,-0.1375 0.746,0.2163 1.353,0.7863 0.768,0.7212 1.243,0.8966 1.562,0.5767 0.262,-0.2618 0.497,-2.8588 0.544,-6.0331 l 0.09,-5.5732 2.639,-0.815 c 1.45,-0.4482 3.506,-0.8862 4.567,-0.9733 l 1.931,-0.1583 0.728,2.6378 c 0.963,3.4866 3.433,8.7825 4.556,9.766 0.867,0.7599 0.884,0.7569 0.534,-0.094 -1.491,-3.6231 -2.122,-6.2633 -2.365,-9.8917 l -0.28,-4.1765 -1.319,-0.1161 c -3.998,-0.352 -4.176,-0.451 -4.176,-2.3239 0,-2.2438 -2.193,-23.859 -2.446,-24.1123 -0.368,-0.368 -0.665,0.3106 -3.45,7.9118 -7.803,21.2906 -13.301,32.7908 -19.048,39.8478 -1.049,1.2882 -1.776,2.5555 -1.615,2.8163 0.161,0.2608 2.394,2.022 4.961,3.9138 3.102,2.2857 4.767,3.264 4.961,2.9161 0.162,-0.288 0.505,-2.0063 0.764,-3.8185 z m 27.877,-1.6711 1.11,-4.0914 -1.447,-0.6904 -1.449,-0.6906 -2.911,2.3329 c -1.601,1.2831 -2.917,2.4458 -2.924,2.5838 0,0.1379 1.328,1.4726 2.968,2.9659 1.903,1.734 3.082,2.5283 3.261,2.1981 0.155,-0.2843 0.781,-2.358 1.392,-4.6083 z m 11.604,-5.031 c 0.877,-0.962 1.89,-2.6561 1.89,-3.1583 0,-0.5229 -1.373,-0.2033 -4.467,1.0396 -4.452,1.789 -4.593,3.0869 -0.336,3.1012 1.532,0.01 2.227,-0.2293 2.913,-0.9825 z m -16.574,-3.4378 c 0,-1.4111 -6.629,-8.6948 -9.123,-10.0241 -1.133,-0.6038 -1.14,-0.5586 -0.402,2.2416 0.65,2.4608 2.209,4.2392 5.746,6.5541 2.621,1.7144 3.779,2.0911 3.779,1.2284 z m 15.615,-1.1297 c 0.962,-0.6383 2.295,-1.6647 2.96,-2.2811 1.183,-1.0956 1.224,-1.1016 1.837,-0.2685 0.577,0.7843 0.65,0.7921 0.92,0.099 0.328,-0.8474 -1.469,-3.7191 -1.956,-3.1269 -0.166,0.1999 -1.658,1.7978 -3.316,3.5509 -3.19,3.3722 -3.313,3.9273 -0.445,2.0269 z m 5.737,-17.3759 c -2.706,-10.7643 -11.182,-16.8757 -22.251,-16.0453 -4.994,0.3746 -4.929,0.3213 -4.572,3.7555 0.167,1.6002 0.354,2.9686 0.417,3.0408 0.07,0.072 0.615,0.01 1.227,-0.1482 0.67,-0.1679 1.327,-0.7946 1.648,-1.5696 0.775,-1.8694 1.499,-2.1569 1.159,-0.4602 -0.25,1.2538 -0.174,1.3872 0.797,1.3872 0.719,0 1.29,-0.3989 1.73,-1.209 l 0.656,-1.209 0.02,1.209 c 0.02,1.0585 0.189,1.209 1.397,1.209 0.799,0 1.626,-0.3239 1.965,-0.7693 0.545,-0.7178 0.585,-0.7189 0.598,-0.017 0,0.508 0.618,0.9152 1.875,1.2536 4.959,1.3355 9.919,5.4006 12.423,10.1833 0.715,1.3674 1.371,2.4162 1.458,2.3305 0.09,-0.085 -0.16,-1.4092 -0.545,-2.9413 z"
         id="path3770"
         inkscape:connector-curvature="0" />
      <path
         style="display:inline;fill:#000000;stroke-width:0.439632"
         d="m -13732.842,6846.1608 c -15.716,-24.9226 -45.222,-39.7812 -74.14,-37.334 -18.843,1.5947 -34.976,8.6536 -49.503,21.6607 -1.66,1.4863 -3.158,2.6867 -3.328,2.6677 -0.171,-0.019 -1.077,-2.3231 -2.014,-5.1203 -8.064,-24.0615 -27.912,-42.2451 -50.394,-46.1655 -4.814,-0.8396 -13.026,-0.8396 -17.84,0 -12.415,2.165 -25.207,9.0888 -36.033,19.5037 -1.148,1.1049 -2.088,1.7598 -2.088,1.4553 0,-1.195 5.294,-16.4103 7.443,-21.3948 8.174,-18.9538 20.76,-36.0556 37.623,-51.1247 11.219,-10.0253 18.93,-15.7229 45.938,-33.9434 30.096,-20.3034 39.721,-27.6678 53.032,-40.576 5.482,-5.3156 6.319,-5.978 6.319,-5.0001 0,5.2586 7.902,20.1321 14.463,27.2227 3.208,3.4669 3.799,3.7469 5.181,2.4537 3.399,-3.1822 9.852,-15.4873 18.178,-34.6587 5.007,-11.5323 10.054,-22.2701 11.195,-23.819 0.726,-0.9847 0.743,-0.902 0.469,2.3718 -0.154,1.8655 -0.146,5.9706 0.02,9.1223 l 0.303,5.7304 h 5.139 c 6.079,0 10.673,1.0062 14.442,3.1628 2.515,1.4389 6.375,4.9559 7.617,6.9399 l 0.682,1.0902 1.491,-2.0982 c 0.82,-1.154 2.329,-3.6229 3.354,-5.4865 l 1.863,-3.3884 v 1.8366 c 0.02,4.7985 -1.645,12.4267 -3.423,15.7269 -0.535,0.9955 -0.787,3.0385 -0.975,7.9352 -0.283,7.3548 -0.898,9.4755 -3.439,11.8745 -0.897,0.8463 -1.389,1.7351 -1.389,2.5055 0,1.9749 -1.569,5.562 -5.064,11.5744 -4.331,7.4499 -6.93,12.5361 -6.585,12.8815 0.152,0.1525 1.742,0.3511 3.532,0.4416 15.223,0.7687 29.053,-10.7733 30.942,-25.8237 0.612,-4.8676 -0.535,-12.2991 -2.477,-16.0545 l -0.669,-1.2933 2.273,1.6327 c 15.9,11.4232 30.915,19.9246 50.587,28.6419 11.013,4.8804 23.327,9.6689 46.162,17.9515 36.074,13.0848 45.3,16.8016 60.254,24.271 9.532,4.7621 14.559,7.6634 22.835,13.179 10.459,6.9701 16.638,12.0087 25.325,20.6492 13.11,13.0407 22.367,25.6095 30.83,41.8632 l 3.369,6.4696 -3.26,-2.8056 c -9.963,-8.5752 -22.591,-14.5353 -36.083,-17.0299 -6.337,-1.1719 -18.376,-1.0625 -25.236,0.2294 -12.333,2.3227 -24.205,7.7835 -34.022,15.6496 -7.658,6.1358 -15.911,16.3218 -19.876,24.5322 l -1.004,2.0814 -2.141,-2.4014 c -8.305,-9.3186 -24.597,-18.081 -39.948,-21.4854 -31.753,-7.0426 -62.257,4.59 -84.623,32.2714 -1.359,1.6827 -2.598,3.0556 -2.751,3.0508 -0.155,-0.01 -1.307,-1.6369 -2.562,-3.6269 z m 0.966,-19.724 c -3.088,-18.1415 -11.667,-36.9352 -24.757,-54.2356 -4.846,-6.4032 -10.207,-12.7341 -21.265,-25.1122 -16.524,-18.4945 -20.007,-22.7639 -25.969,-31.8201 -10.847,-16.4747 -15.69,-31.9425 -15.734,-50.2505 l -0.02,-6.2422 -1.705,6.5945 c -2.277,8.8112 -4.827,16.3128 -13.967,41.1056 -12.907,35.0067 -18.214,51.9185 -21.663,69.0222 -3.412,16.928 -4.579,30.7108 -3.651,43.1263 0.365,4.8679 0.87,3.696 0.967,-2.2405 0.04,-2.0552 0.341,-6.6055 0.684,-10.1116 2.352,-24.1005 7.525,-43.5366 21.763,-81.7715 8.434,-22.6472 14.207,-40.5288 15.683,-48.5793 0.288,-1.5729 0.383,-1.2711 0.905,2.8575 1.163,9.2324 3.658,17.1836 8.278,26.3975 6.402,12.7635 13.277,22.3349 33.618,46.8013 20.637,24.8213 28.035,35.0311 36.16,49.8982 3.858,7.0609 9.7,22.0352 10.684,27.3876 0.169,0.9181 0.392,1.5839 0.496,1.4797 0.104,-0.1041 -0.126,-2.0422 -0.511,-4.3069 z m 129.229,-2.0771 c -2.363,-10.1311 -9.028,-20.4021 -18.967,-29.2295 -14.336,-12.7334 -34.483,-24.1935 -73.556,-41.8386 -48.371,-21.8445 -63.527,-29.4829 -80.233,-40.4374 -17.68,-11.5937 -29.087,-22.6069 -36.419,-35.1646 -1.127,-1.9293 -2.049,-3.3746 -2.049,-3.2117 0,0.1629 0.662,1.7414 1.47,3.5079 7.318,15.9936 23.494,31.0522 48.991,45.6065 9.837,5.6146 29.621,15.243 52.853,25.7206 24.633,11.1103 37.527,17.1579 45.282,21.2394 33.847,17.815 51.751,33.1428 60.96,52.1922 1.115,2.3051 2.081,4.1909 2.147,4.1909 0.07,0 -0.149,-1.159 -0.479,-2.5757 z m 112.109,-21.6823 c -9.733,-15.074 -27.355,-28.0878 -58.88,-43.4821 -12.533,-6.1202 -19.264,-9.1112 -46.396,-20.6172 -38.262,-16.2261 -53.796,-23.2914 -68.345,-31.084 -22.363,-11.9778 -36.321,-21.7412 -49.146,-34.3752 -2.599,-2.5607 -4.724,-4.4613 -4.722,-4.2237 0,0.9549 2.676,4.992 5.078,7.6861 16.236,18.2129 58.258,42.6936 105.266,61.3235 5.681,2.252 11.869,4.6363 13.75,5.2984 1.881,0.6622 3.33,1.2926 3.222,1.4009 -0.278,0.2786 -49.7,-12.1084 -71.456,-17.9098 -32.212,-8.5896 -57.685,-15.8252 -69.844,-19.8393 l -5.408,-1.7852 -3.292,0.8132 -3.292,0.8131 10.018,2.7836 c 21.17,5.8822 50.8,13.9441 81.02,22.0455 80.224,21.5065 98.167,27.1063 116.206,36.2663 14.406,7.3158 25.079,15.4755 40.502,30.9644 4.098,4.1168 7.53,7.4075 7.625,7.3127 0.09,-0.095 -0.763,-1.6209 -1.906,-3.3912 z m -294.561,-113.8987 c 0.15,-1.0262 0.504,-3.152 0.789,-4.7236 l 0.515,-2.8576 0.309,2.3685 c 0.323,2.4777 1.514,4.5659 2.744,4.8077 0.61,0.12 0.723,-0.297 0.723,-2.6793 0,-1.5518 0.128,-4.9206 0.285,-7.4863 l 0.286,-4.6648 1.092,0.8596 c 0.602,0.4727 1.336,0.8596 1.634,0.8596 0.688,0 1.099,-2.9696 1.099,-7.9335 v -3.8541 l 2.081,-0.7088 c 1.144,-0.3899 3.109,-0.83 4.368,-0.9778 l 2.287,-0.2688 0.743,2.585 c 1.439,5.0071 4.27,10.2786 5.521,10.2786 0.186,0 -0.135,-1.0386 -0.713,-2.308 -1.158,-2.541 -1.968,-6.7761 -1.974,-10.3096 v -2.2862 l -2.628,-0.2974 c -3.095,-0.35 -2.704,0.795 -3.741,-10.9569 -0.908,-10.2904 -1.581,-15.6069 -1.978,-15.6069 -0.176,0 -1.458,3.1159 -2.85,6.9242 -8.318,22.7616 -13.618,33.9666 -19.525,41.2879 l -2.187,2.7101 5.074,3.7697 c 2.79,2.0735 5.232,3.672 5.425,3.5524 0.193,-0.1196 0.474,-1.0572 0.624,-2.0837 z m 27.928,-2.7453 c 0.523,-1.9344 1.049,-3.8589 1.168,-4.2767 0.147,-0.5153 -0.238,-1.0365 -1.198,-1.6201 l -1.415,-0.8605 -3.253,2.6578 c -1.788,1.4618 -3.191,2.7083 -3.117,2.7701 0.08,0.062 1.51,1.3249 3.192,2.8068 1.682,1.4819 3.196,2.5471 3.365,2.367 0.169,-0.18 0.734,-1.9101 1.258,-3.8444 z m 12.276,-6.6098 c 2.57,-2.9261 1.471,-3.6181 -2.768,-1.7433 -1.368,0.6046 -2.765,1.0991 -3.107,1.0991 -0.917,0 -1.264,0.8257 -0.657,1.558 0.342,0.4125 1.356,0.6403 2.85,0.6403 2.104,0 2.445,-0.144 3.682,-1.5541 z m -17.099,-3.0373 c 0,-1.0883 -4.123,-6.0809 -6.827,-8.2679 -3.167,-2.5621 -3.937,-2.7046 -3.042,-0.5637 0.35,0.8386 0.637,1.8846 0.637,2.3247 0,0.4399 0.939,1.706 2.088,2.8133 3.719,3.5856 7.144,5.3565 7.144,3.6936 z m 18.04,-2.7289 c 1.43,-1.2919 1.783,-1.4428 2.006,-0.8602 0.38,0.993 1.496,0.8826 1.496,-0.1481 0,-0.4701 -0.452,-1.3803 -1.006,-2.0227 l -1.004,-1.1681 -3.483,3.8372 c -3.454,3.8039 -3.468,3.829 -1.614,2.883 1.029,-0.5248 2.651,-1.6593 3.605,-2.5211 z m 2.85,-17.5387 c -2.486,-7.4051 -7.003,-11.7481 -14.155,-13.6109 -2.591,-0.6751 -7.877,-0.8587 -10.802,-0.3753 -1.553,0.2566 -1.648,0.3654 -1.644,1.8637 0,3.0982 0.499,4.8883 1.336,4.8883 1.33,0 2.176,-0.4986 2.176,-1.2819 0,-0.4115 0.268,-1.1133 0.594,-1.5596 0.536,-0.7327 0.574,-0.677 0.39,0.5754 -0.191,1.3026 -0.121,1.3868 1.165,1.3868 0.898,0 1.369,-0.2175 1.369,-0.6335 0,-0.3484 0.211,-0.7639 0.469,-0.9234 0.282,-0.1739 0.413,0.035 0.329,0.5236 -0.199,1.1644 2.659,1.4317 3.469,0.3245 0.533,-0.729 0.568,-0.721 0.568,0.129 0,0.7055 0.367,0.9691 1.649,1.1859 2.502,0.423 6.024,2.4431 8.492,4.8712 2.148,2.1126 5.178,6.5439 5.313,7.7691 0.04,0.3312 0.146,0.077 0.245,-0.5645 0.1,-0.6417 -0.335,-2.6975 -0.963,-4.5684 z"
         id="path3768"
         inkscape:connector-curvature="0" />
      <text
         xml:space="preserve"
         style="font-style:normal;font-weight:normal;font-size:10.58333302px;line-height:1.25;font-family:sans-serif;letter-spacing:0px;word-spacing:0px;display:none;fill:#00dc7a;fill-opacity:1;stroke:none;stroke-width:0.26458332"
         x="-13964.522"
         y="6776.5615"
         id="text4542"
         inkscape:label="text-as-text"><tspan
           sodipodi:role="line"
           id="tspan4540"
           x="-13964.522"
           y="6776.5615"
           style="font-style:normal;font-variant:normal;font-weight:normal;font-stretch:normal;font-size:81.1388855px;font-family:'Blade Runner Movie Font';-inkscape-font-specification:'Blade Runner Movie Font, Normal';font-variant-ligatures:normal;font-variant-caps:normal;font-variant-numeric:normal;font-feature-settings:normal;text-align:start;writing-mode:lr-tb;text-anchor:start;fill:#00dc7a;fill-opacity:1;stroke-width:0.26458332">batmass</tspan></text>
      <g
         aria-label="batmass"
         style="font-style:normal;font-weight:normal;font-size:10.58333302px;line-height:1.25;font-family:sans-serif;letter-spacing:0px;word-spacing:0px;display:inline;fill:#00dc7a;fill-opacity:1;stroke:none;stroke-width:0.26458332"
         id="text4575"
         inkscape:label="text-as-path">
        <path
           d="m -13899.611,6734.207 h -58.258 l 11.684,-13.8747 h 36.107 q 10.629,0 10.629,11.4406 0,1.1359 -0.162,2.4341 z m -0.487,5.3552 q 0,5.1929 -6.329,7.627 2.353,3.9759 2.515,4.2193 0.893,2.0284 0.893,5.1929 0,0.3245 0,1.6227 -0.487,8.0328 -6.491,12.9823 -4.625,3.9758 -10.062,5.3551 l -44.301,-0.081 10.791,-36.9182 z m -25.559,19.1488 q 0,-2.4342 -1.704,-2.7588 h -12.658 l -1.541,5.6798 h 12.576 q 1.136,0 2.191,-0.8926 1.136,-0.8925 1.136,-2.0284 z"
           style="font-style:normal;font-variant:normal;font-weight:normal;font-stretch:normal;font-size:81.1388855px;font-family:'Blade Runner Movie Font';-inkscape-font-specification:'Blade Runner Movie Font, Normal';font-variant-ligatures:normal;font-variant-caps:normal;font-variant-numeric:normal;font-feature-settings:normal;text-align:start;writing-mode:lr-tb;text-anchor:start;fill:#00dc7a;fill-opacity:1;stroke-width:0.26458332"
           id="path4577"
           inkscape:connector-curvature="0" />
        <path
           d="m -13844.753,6734.207 h -35.052 l 11.684,-13.6313 h 20.447 z m 9.088,42.2734 h -20.366 l -5.517,-22.0698 h -11.522 l -16.309,22.0698 h -23.774 l 29.048,-37.0805 h 40.488 z"
           style="font-style:normal;font-variant:normal;font-weight:normal;font-stretch:normal;font-size:81.1388855px;font-family:'Blade Runner Movie Font';-inkscape-font-specification:'Blade Runner Movie Font, Normal';font-variant-ligatures:normal;font-variant-caps:normal;font-variant-numeric:normal;font-feature-settings:normal;text-align:start;writing-mode:lr-tb;text-anchor:start;fill:#00dc7a;fill-opacity:1;stroke-width:0.26458332"
           id="path4579"
           inkscape:connector-curvature="0" />
        <path
           d="m -13773.141,6720.5757 -3.733,13.469 h -54.038 l 8.601,-13.469 z m -21.015,18.9054 -9.818,36.9993 h -18.581 l 10.061,-36.9993 z"
           style="font-style:normal;font-variant:normal;font-weight:normal;font-stretch:normal;font-size:81.1388855px;font-family:'Blade Runner Movie Font';-inkscape-font-specification:'Blade Runner Movie Font, Normal';font-variant-ligatures:normal;font-variant-caps:normal;font-variant-numeric:normal;font-feature-settings:normal;text-align:start;writing-mode:lr-tb;text-anchor:start;fill:#00dc7a;fill-opacity:1;stroke-width:0.26458332"
           id="path4581"
           inkscape:connector-curvature="0" />
        <path
           d="m -13699.267,6720.5757 -3.813,13.6313 h -64.262 l 3.813,-13.6313 h 18.987 l 11.278,10.7915 13.794,-10.7915 z m -5.112,18.9054 -10.466,36.9993 h -20.204 l 9.25,-33.267 -13.713,11.1161 -11.359,-11.1161 -9.412,33.267 h -18.743 l 10.304,-36.9993 z"
           style="font-style:normal;font-variant:normal;font-weight:normal;font-stretch:normal;font-size:81.1388855px;font-family:'Blade Runner Movie Font';-inkscape-font-specification:'Blade Runner Movie Font, Normal';font-variant-ligatures:normal;font-variant-caps:normal;font-variant-numeric:normal;font-feature-settings:normal;text-align:start;writing-mode:lr-tb;text-anchor:start;fill:#00dc7a;fill-opacity:1;stroke-width:0.26458332"
           id="path4583"
           inkscape:connector-curvature="0" />
        <path
           d="m -13648.878,6734.207 h -35.052 l 11.684,-13.6313 h 20.447 z m 9.087,42.2734 h -20.366 l -5.517,-22.0698 h -11.522 l -16.309,22.0698 h -23.773 l 29.047,-37.0805 h 40.489 z"
           style="font-style:normal;font-variant:normal;font-weight:normal;font-stretch:normal;font-size:81.1388855px;font-family:'Blade Runner Movie Font';-inkscape-font-specification:'Blade Runner Movie Font, Normal';font-variant-ligatures:normal;font-variant-caps:normal;font-variant-numeric:normal;font-feature-settings:normal;text-align:start;writing-mode:lr-tb;text-anchor:start;fill:#00dc7a;fill-opacity:1;stroke-width:0.26458332"
           id="path4585"
           inkscape:connector-curvature="0" />
        <path
           d="m -13574.914,6720.5757 -3.651,13.469 h -52.578 q 1.704,-5.1928 6.248,-9.1686 4.949,-4.3004 10.061,-4.3004 z m -13.712,50.7929 q -3.246,3.3267 -10.062,5.1929 l -44.301,-0.081 4.3,-15.4164 30.671,0.1623 q 3.975,-0.4869 3.975,-3.8947 0,-2.0285 -0.568,-2.7587 -0.486,-0.7303 -2.434,-1.3794 h -15.66 q -5.111,0 -7.464,-2.5153 -2.353,-2.5964 -2.353,-8.3573 0,-2.8398 0,-2.8398 h 35.863 q 6.572,0.8113 8.844,2.5964 0.325,0.2434 4.382,4.7872 1.541,3.8947 1.541,8.8441 0,9.0064 -6.734,15.6598 z"
           style="font-style:normal;font-variant:normal;font-weight:normal;font-stretch:normal;font-size:81.1388855px;font-family:'Blade Runner Movie Font';-inkscape-font-specification:'Blade Runner Movie Font, Normal';font-variant-ligatures:normal;font-variant-caps:normal;font-variant-numeric:normal;font-feature-settings:normal;text-align:start;writing-mode:lr-tb;text-anchor:start;fill:#00dc7a;fill-opacity:1;stroke-width:0.26458332"
           id="path4587"
           inkscape:connector-curvature="0" />
        <path
           d="m -13512,6720.5757 -3.651,13.469 h -52.578 q 1.704,-5.1928 6.248,-9.1686 4.949,-4.3004 10.061,-4.3004 z m -13.712,50.7929 q -3.246,3.3267 -10.061,5.1929 l -44.302,-0.081 4.3,-15.4164 30.671,0.1623 q 3.976,-0.4869 3.976,-3.8947 0,-2.0285 -0.568,-2.7587 -0.487,-0.7303 -2.435,-1.3794 h -15.659 q -5.112,0 -7.465,-2.5153 -2.353,-2.5964 -2.353,-8.3573 0,-2.8398 0,-2.8398 h 35.863 q 6.573,0.8113 8.844,2.5964 0.325,0.2434 4.382,4.7872 1.542,3.8947 1.542,8.8441 0,9.0064 -6.735,15.6598 z"
           style="font-style:normal;font-variant:normal;font-weight:normal;font-stretch:normal;font-size:81.1388855px;font-family:'Blade Runner Movie Font';-inkscape-font-specification:'Blade Runner Movie Font, Normal';font-variant-ligatures:normal;font-variant-caps:normal;font-variant-numeric:normal;font-feature-settings:normal;text-align:start;writing-mode:lr-tb;text-anchor:start;display:inline;fill:#00dc7a;fill-opacity:1;stroke-width:0.26458332"
           id="path4589"
           inkscape:connector-curvature="0" />
      </g>
    </g>
  </g>
</svg>
